<svg width="192" height="187" viewBox="0 0 192 187" fill="none" xmlns="http://www.w3.org/2000/svg">
  <path d="M141.475 186.515C155.134 178.629 166.732 167.621 175.32 154.392C183.907 141.162 189.24 126.087 190.882 110.401C192.524 94.7141 190.429 78.8616 184.767 64.1405C179.105 49.4194 170.039 36.248 158.309 25.7042C146.579 15.1603 132.519 7.54367 117.28 3.47752C102.041 -0.58863 86.0555 -0.988743 70.632 2.30995C55.2086 5.60863 40.7853 12.5124 28.5426 22.4562C16.2998 32.4 6.58554 45.1013 0.194613 59.5208L34.3359 74.6527C38.3378 65.6236 44.4207 57.6702 52.0868 51.4436C59.753 45.217 68.7845 40.894 78.4424 38.8284C88.1002 36.7629 98.11 37.0134 107.652 39.5596C117.195 42.1057 125.999 46.8751 133.344 53.4774C140.689 60.0798 146.366 68.3275 149.911 77.5455C153.457 86.7636 154.769 96.6901 153.741 106.513C152.712 116.335 149.373 125.775 143.996 134.059C138.618 142.343 131.356 149.236 122.803 154.174L141.475 186.515Z" fill="#DAFFE4"/>
</svg>
