<svg width="264" height="318" viewBox="0 0 264 318" fill="none" xmlns="http://www.w3.org/2000/svg">
  <path opacity="0.13" d="M263.414 158.758C263.414 118.584 248.184 79.9045 220.793 50.516C193.403 21.1276 155.889 3.21618 115.814 0.392605C75.74 -2.43096 36.0854 10.0433 4.84447 35.3007C-26.3964 60.558 -46.9002 96.7201 -52.5333 136.497C-58.1665 176.274 -48.5102 216.707 -25.511 249.646C-2.51185 282.585 32.1197 305.579 71.4023 313.994C110.685 322.409 151.697 315.619 186.171 294.991C220.645 274.364 246.016 241.434 257.171 202.84L192.868 184.254C186.416 206.576 171.742 225.622 151.803 237.553C131.864 249.483 108.143 253.411 85.4228 248.544C62.7026 243.677 42.6723 230.377 29.3701 211.326C16.0678 192.275 10.4828 168.889 13.7409 145.883C16.999 122.877 28.858 101.961 46.9271 87.3527C64.9962 72.7444 87.9317 65.5295 111.11 67.1626C134.288 68.7957 155.985 79.1553 171.828 96.153C187.67 113.151 196.479 135.522 196.479 158.758H263.414Z" fill="#919CFF"/>
</svg>
