<svg width="101" height="39" viewBox="0 0 101 39" fill="none" xmlns="http://www.w3.org/2000/svg">
  <path d="M15.3862 38.3295L0.711426 5.0636H5.94903L17.6039 32.1482L24.8163 19.9186L34.2604 5.0636L27.492 19.9186L19.5857 38.3295H15.3862Z" fill="black"/>
  <path d="M40.5124 38.3295C37.5351 38.3295 35.1905 37.4983 33.4785 35.836C31.7666 34.1489 30.9106 31.8539 30.9106 28.951C30.9106 27.0902 31.2828 25.4527 32.0271 24.0384C32.7962 22.5994 33.8507 21.4829 35.1905 20.689C36.5302 19.895 38.0685 19.4981 39.8053 19.4981C42.3112 19.4981 44.2836 20.3044 45.7227 21.9171C47.1617 23.505 47.8812 25.7008 47.8812 28.5044V29.7697H34.5578C34.8307 33.541 36.828 35.4266 40.5496 35.4266C41.5917 35.4266 42.6089 35.2653 43.6013 34.9428C44.6186 34.6203 45.5738 34.0868 46.467 33.3425L47.5835 35.9476C46.7647 36.692 45.7103 37.275 44.4201 37.6968C43.1299 38.1186 41.8274 38.3295 40.5124 38.3295ZM39.9541 22.1404C38.3911 22.1404 37.1505 22.6242 36.2325 23.5918C35.3145 24.5595 34.7563 25.8496 34.5578 27.4623H44.7178C44.6434 25.7752 44.1968 24.4726 43.378 23.5546C42.5593 22.6118 41.418 22.1404 39.9541 22.1404Z" fill="black"/>
  <path d="M57.8964 38.3295C55.9116 38.3295 54.4229 37.7712 53.4305 36.6547C52.4629 35.5383 51.9791 33.9007 51.9791 31.7422V11.7571H55.7379V31.5189C55.7379 33.9752 56.7427 35.2033 58.7524 35.2033C59.0501 35.2033 59.3231 35.1909 59.5712 35.1661C59.8441 35.1413 60.117 35.0917 60.3899 35.0172L60.3155 38.0317C59.4719 38.2302 58.6656 38.3295 57.8964 38.3295Z" fill="black"/>
  <path d="M71.0629 38.3295C69.2269 38.3295 67.639 37.9449 66.2992 37.1758C64.9594 36.4066 63.9173 35.3274 63.173 33.938C62.4535 32.5237 62.0937 30.849 62.0937 28.9138C62.0937 26.9785 62.4535 25.3162 63.173 23.9268C63.9173 22.5126 64.9594 21.4209 66.2992 20.6518C67.639 19.8826 69.2269 19.4981 71.0629 19.4981C72.8492 19.4981 74.4123 19.8826 75.7521 20.6518C77.0919 21.4209 78.1339 22.5126 78.8783 23.9268C79.6226 25.3162 79.9947 26.9785 79.9947 28.9138C79.9947 30.849 79.6226 32.5237 78.8783 33.938C78.1339 35.3274 77.0919 36.4066 75.7521 37.1758C74.4123 37.9449 72.8492 38.3295 71.0629 38.3295ZM71.0629 35.4266C72.6011 35.4266 73.8417 34.8684 74.7845 33.7519C75.7273 32.6354 76.1987 31.0227 76.1987 28.9138C76.1987 26.8048 75.7273 25.2045 74.7845 24.1129C73.8417 22.9964 72.6011 22.4381 71.0629 22.4381C69.4998 22.4381 68.2468 22.9964 67.304 24.1129C66.3612 25.2045 65.8898 26.8048 65.8898 28.9138C65.8898 31.0227 66.3612 32.6354 67.304 33.7519C68.2468 34.8684 69.4998 35.4266 71.0629 35.4266Z" fill="black"/>
  <path d="M81.361 37.9945L88.9159 28.616L81.8448 19.833H86.2363L91.1117 26.0481L95.987 19.833H100.379L93.2702 28.6533L100.862 37.9945H96.3964L91.0744 31.2956L85.7897 37.9945H81.361Z" fill="black"/>
  <path d="M43.963 0.496094L11.9661 6.65702L13.5173 10.669L43.963 0.496094Z" fill="black"/>
</svg>
