<svg width="28" height="28" viewBox="0 0 28 28" fill="none" xmlns="http://www.w3.org/2000/svg">
  <path d="M5.83268 8.1665C5.18835 8.1665 4.66602 8.68884 4.66602 9.33317V10.4998C4.66602 11.1442 5.18835 11.6665 5.83268 11.6665H22.166C22.8103 11.6665 23.3327 11.1442 23.3327 10.4998V9.33317C23.3327 8.68884 22.8103 8.1665 22.166 8.1665H5.83268Z" fill="#2B46A3"/>
  <path d="M5.83268 16.3332C5.18835 16.3332 4.66602 16.8555 4.66602 17.4998V18.6665C4.66602 19.3108 5.18835 19.8332 5.83268 19.8332H22.166C22.8103 19.8332 23.3327 19.3108 23.3327 18.6665V17.4998C23.3327 16.8555 22.8103 16.3332 22.166 16.3332H5.83268Z" fill="#2B46A3"/>
  <path d="M5.83268 8.1665C5.18835 8.1665 4.66602 8.68884 4.66602 9.33317V10.4998C4.66602 11.1442 5.18835 11.6665 5.83268 11.6665H22.166C22.8103 11.6665 23.3327 11.1442 23.3327 10.4998V9.33317C23.3327 8.68884 22.8103 8.1665 22.166 8.1665H5.83268Z" stroke="#2B46A3" stroke-width="0.5"/>
  <path d="M5.83268 16.3332C5.18835 16.3332 4.66602 16.8555 4.66602 17.4998V18.6665C4.66602 19.3108 5.18835 19.8332 5.83268 19.8332H22.166C22.8103 19.8332 23.3327 19.3108 23.3327 18.6665V17.4998C23.3327 16.8555 22.8103 16.3332 22.166 16.3332H5.83268Z" stroke="#2B46A3" stroke-width="0.5"/>
</svg>
