<svg width="263" height="214" viewBox="0 0 263 214" fill="none" xmlns="http://www.w3.org/2000/svg">
  <path opacity="0.13" d="M-26.5434 205.207C29.6446 220.263 89.4511 213.457 140.819 186.161C192.188 158.866 231.298 113.111 250.265 58.1197C269.233 3.1288 266.647 -57.0081 243.029 -110.168C219.411 -163.328 176.518 -205.557 122.996 -228.342C69.4746 -251.128 9.30463 -252.775 -45.3836 -232.952C-100.072 -213.129 -145.211 -173.31 -171.702 -121.522C-198.193 -69.7339 -204.065 -9.82853 -188.135 46.1177C-172.205 102.064 -135.656 149.89 -85.8585 179.956L-35.7653 96.9846C-64.5675 79.5955 -85.7062 51.9336 -94.9199 19.5754C-104.134 -12.7828 -100.737 -47.4309 -85.4156 -77.384C-70.0938 -107.337 -43.986 -130.368 -12.3554 -141.833C19.2752 -153.298 54.0763 -152.346 85.0323 -139.167C115.988 -125.988 140.797 -101.564 154.457 -70.8171C168.117 -40.0706 169.612 -5.28856 158.642 26.5171C147.672 58.3227 125.051 84.7866 95.3408 100.574C65.6303 116.361 31.0394 120.298 -1.45857 111.59L-26.5434 205.207Z" fill="#919CFF"/>
</svg>
