<svg width="51" height="50" viewBox="0 0 51 50" fill="none" xmlns="http://www.w3.org/2000/svg">
  <path d="M11.0862 7.677L40.8532 24.0937C41.0167 24.1845 41.1527 24.3163 41.2474 24.4755C41.342 24.6347 41.3918 24.8157 41.3918 24.9999C41.3918 25.1842 41.342 25.3651 41.2474 25.5244C41.1527 25.6836 41.0167 25.8153 40.8532 25.9062L11.0862 42.3228C10.8954 42.4273 10.6763 42.4714 10.459 42.4494C10.2416 42.4273 10.0364 42.3401 9.87146 42.1995C9.7065 42.059 9.58976 41.872 9.53715 41.664C9.48454 41.4561 9.49862 41.2372 9.57747 41.0374L15.7867 25.377C15.8828 25.1344 15.8828 24.8654 15.7867 24.6228L9.57534 8.96241C9.49603 8.76233 9.48171 8.54312 9.53433 8.33475C9.58695 8.12639 9.70394 7.93904 9.86931 7.79835C10.0347 7.65767 10.2403 7.5705 10.4582 7.54877C10.676 7.52705 10.8953 7.57183 11.0862 7.677Z" stroke="#2A6120" stroke-opacity="0.23" stroke-width="2.69009" stroke-linecap="round" stroke-linejoin="round"/>
</svg>
