<svg width="318" height="140" viewBox="0 0 318 140" fill="none" xmlns="http://www.w3.org/2000/svg">
  <path opacity="0.13" d="M317.516 158.758C317.516 118.584 302.286 79.9045 274.895 50.516C247.504 21.1276 209.991 3.21618 169.916 0.392605C129.842 -2.43096 90.1872 10.0433 58.9463 35.3007C27.7054 60.558 7.20166 96.7201 1.56848 136.497C-4.0647 176.274 5.59162 216.707 28.5908 249.646C51.59 282.585 86.2215 305.579 125.504 313.994C164.787 322.409 205.799 315.619 240.272 294.991C274.746 274.364 300.118 241.434 311.273 202.84L246.97 184.254C240.518 206.576 225.843 225.622 205.904 237.553C185.965 249.483 162.245 253.411 139.525 248.544C116.804 243.677 96.7741 230.377 83.4719 211.326C70.1696 192.275 64.5846 168.889 67.8427 145.883C71.1008 122.877 82.9598 101.961 101.029 87.3527C119.098 72.7444 142.033 65.5295 165.212 67.1626C188.39 68.7957 210.087 79.1553 225.929 96.153C241.772 113.151 250.581 135.522 250.581 158.758H317.516Z" fill="#919CFF"/>
</svg>
