<svg width="192" height="104" viewBox="0 0 192 104" fill="none" xmlns="http://www.w3.org/2000/svg">
  <path d="M141.485 186.981C155.144 179.094 166.742 168.086 175.329 154.857C183.916 141.627 189.249 126.552 190.891 110.866C192.534 95.1792 190.438 79.3267 184.777 64.6056C179.115 49.8845 170.048 36.7131 158.318 26.1693C146.588 15.6254 132.529 8.00876 117.289 3.94261C102.05 -0.123542 86.065 -0.523655 70.6415 2.77503C55.2181 6.07372 40.7948 12.9774 28.5521 22.9213C16.3094 32.8651 6.59506 45.5664 0.204134 59.9859L34.3454 75.1178C38.3473 66.0886 44.4302 58.1353 52.0963 51.9087C59.7625 45.6821 68.794 41.3591 78.4519 39.2935C88.1098 37.228 98.1195 37.4785 107.662 40.0246C117.204 42.5708 126.008 47.3402 133.353 53.9425C140.698 60.5449 146.376 68.7925 149.921 78.0106C153.466 87.2287 154.778 97.1552 153.75 106.978C152.722 116.8 149.382 126.24 144.005 134.524C138.628 142.808 131.366 149.701 122.812 154.639L141.485 186.981Z" fill="#DAFFE4"/>
</svg>
