<svg width="64" height="24" viewBox="0 0 64 24" fill="none" xmlns="http://www.w3.org/2000/svg">
  <path d="M9.30907 24L0 2.89744H3.32253L10.7159 20.0788L15.2912 12.3209L21.2821 2.89744L16.9885 12.3209L11.9731 24H9.30907Z" fill="black"/>
  <path d="M25.2482 24C23.3595 24 21.8721 23.4727 20.7861 22.4182C19.7002 21.348 19.1572 19.8921 19.1572 18.0507C19.1572 16.8702 19.3932 15.8315 19.8654 14.9343C20.3533 14.0215 21.0222 13.3132 21.8721 12.8096C22.722 12.3059 23.6979 12.0541 24.7996 12.0541C26.3892 12.0541 27.6405 12.5656 28.5533 13.5886C29.4662 14.5959 29.9226 15.9888 29.9226 17.7674V18.57H21.4708C21.6439 20.9624 22.9109 22.1585 25.2718 22.1585C25.9328 22.1585 26.5781 22.0562 27.2077 21.8516C27.853 21.647 28.4589 21.3086 29.0255 20.8365L29.7338 22.4891C29.2144 22.9612 28.5455 23.3311 27.727 23.5987C26.9086 23.8662 26.0823 24 25.2482 24ZM24.894 13.7303C23.9025 13.7303 23.1155 14.0372 22.5332 14.651C21.9508 15.2648 21.5967 16.0833 21.4708 17.1063H27.9159C27.8687 16.0361 27.5854 15.2098 27.066 14.6274C26.5466 14.0293 25.8226 13.7303 24.894 13.7303Z" fill="url(#paint0_linear_10862_41442)"/>
  <path d="M36.2759 24C35.0168 24 34.0724 23.6459 33.4429 22.9376C32.8291 22.2294 32.5222 21.1906 32.5222 19.8213V7.14352H34.9066V19.6796C34.9066 21.2378 35.544 22.0169 36.8189 22.0169C37.0078 22.0169 37.1809 22.009 37.3383 21.9933C37.5114 21.9775 37.6846 21.9461 37.8577 21.8988L37.8105 23.8111C37.2753 23.937 36.7638 24 36.2759 24Z" fill="url(#paint1_linear_10862_41442)"/>
  <path d="M44.6282 24C43.4635 24 42.4562 23.756 41.6063 23.2681C40.7564 22.7802 40.0953 22.0956 39.6232 21.2142C39.1667 20.3171 38.9385 19.2547 38.9385 18.027C38.9385 16.7994 39.1667 15.7449 39.6232 14.8635C40.0953 13.9664 40.7564 13.2739 41.6063 12.786C42.4562 12.298 43.4635 12.0541 44.6282 12.0541C45.7614 12.0541 46.7529 12.298 47.6028 12.786C48.4527 13.2739 49.1138 13.9664 49.5859 14.8635C50.0581 15.7449 50.2942 16.7994 50.2942 18.027C50.2942 19.2547 50.0581 20.3171 49.5859 21.2142C49.1138 22.0956 48.4527 22.7802 47.6028 23.2681C46.7529 23.756 45.7614 24 44.6282 24ZM44.6282 22.1585C45.604 22.1585 46.3909 21.8044 46.989 21.0962C47.5871 20.3879 47.8861 19.3649 47.8861 18.027C47.8861 16.6892 47.5871 15.6741 46.989 14.9815C46.3909 14.2733 45.604 13.9192 44.6282 13.9192C43.6366 13.9192 42.8418 14.2733 42.2437 14.9815C41.6456 15.6741 41.3466 16.6892 41.3466 18.027C41.3466 19.3649 41.6456 20.3879 42.2437 21.0962C42.8418 21.8044 43.6366 22.1585 44.6282 22.1585Z" fill="url(#paint2_linear_10862_41442)"/>
  <path d="M51.1609 23.7875L55.9534 17.8382L51.4678 12.2666H54.2536L57.3463 16.2092L60.439 12.2666H63.2248L58.7156 17.8618L63.5317 23.7875H60.6987L57.3227 19.538L53.9703 23.7875H51.1609Z" fill="url(#paint3_linear_10862_41442)"/>
  <path d="M27.4371 0L7.13952 3.90825L8.12352 6.45332L27.4371 0Z" fill="#012296"/>
  <defs>
    <linearGradient id="paint0_linear_10862_41442" x1="53.373" y1="-16.4335" x2="-8.51555" y2="-7.2312" gradientUnits="userSpaceOnUse">
      <stop stop-color="#002195"/>
      <stop offset="1" stop-color="#1A1717"/>
    </linearGradient>
    <linearGradient id="paint1_linear_10862_41442" x1="53.373" y1="-16.4335" x2="-8.51555" y2="-7.2312" gradientUnits="userSpaceOnUse">
      <stop stop-color="#002195"/>
      <stop offset="1" stop-color="#1A1717"/>
    </linearGradient>
    <linearGradient id="paint2_linear_10862_41442" x1="53.373" y1="-16.4335" x2="-8.51555" y2="-7.2312" gradientUnits="userSpaceOnUse">
      <stop stop-color="#002195"/>
      <stop offset="1" stop-color="#1A1717"/>
    </linearGradient>
    <linearGradient id="paint3_linear_10862_41442" x1="53.373" y1="-16.4335" x2="-8.51555" y2="-7.2312" gradientUnits="userSpaceOnUse">
      <stop stop-color="#002195"/>
      <stop offset="1" stop-color="#1A1717"/>
    </linearGradient>
  </defs>
</svg>
