<svg width="51" height="30" viewBox="0 0 51 30" fill="none" xmlns="http://www.w3.org/2000/svg">
  <path d="M7.39176 24.0569L0 7.30068H2.63822L8.50884 20.9433L12.1418 14.7833L16.8988 7.30068L13.4896 14.7833L9.50708 24.0569H7.39176Z" fill="black"/>
  <path d="M20.048 24.0569C18.5483 24.0569 17.3673 23.6383 16.505 22.8009C15.6427 21.9511 15.2115 20.7951 15.2115 19.3329C15.2115 18.3956 15.399 17.5708 15.7739 16.8584C16.1613 16.1336 16.6925 15.5712 17.3673 15.1713C18.0422 14.7714 18.817 14.5714 19.6918 14.5714C20.9541 14.5714 21.9476 14.9776 22.6725 15.7899C23.3973 16.5897 23.7597 17.6958 23.7597 19.108V19.7453H17.0486C17.1861 21.6449 18.1921 22.5947 20.0667 22.5947C20.5916 22.5947 21.104 22.5135 21.6039 22.351C22.1163 22.1886 22.5975 21.9199 23.0474 21.5449L23.6098 22.8572C23.1973 23.2321 22.6662 23.5258 22.0163 23.7382C21.3665 23.9507 20.7104 24.0569 20.048 24.0569ZM19.7668 15.9024C18.9795 15.9024 18.3546 16.1461 17.8922 16.6335C17.4298 17.1209 17.1486 17.7707 17.0486 18.5831H22.1663C22.1288 17.7332 21.9039 17.0771 21.4914 16.6147C21.079 16.1398 20.5042 15.9024 19.7668 15.9024Z" fill="url(#paint0_linear_10862_41255)"/>
  <path d="M28.8045 24.0569C27.8047 24.0569 27.0548 23.7757 26.5549 23.2133C26.0675 22.651 25.8238 21.8261 25.8238 20.7389V10.6722H27.7172V20.6264C27.7172 21.8636 28.2233 22.4823 29.2356 22.4823C29.3856 22.4823 29.5231 22.476 29.648 22.4635C29.7855 22.451 29.923 22.426 30.0604 22.3885L30.023 23.9069C29.598 24.0069 29.1919 24.0569 28.8045 24.0569Z" fill="url(#paint1_linear_10862_41255)"/>
  <path d="M35.4365 24.0569C34.5117 24.0569 33.7118 23.8632 33.037 23.4758C32.3621 23.0884 31.8372 22.5447 31.4623 21.8449C31.0999 21.1325 30.9187 20.289 30.9187 19.3142C30.9187 18.3394 31.0999 17.502 31.4623 16.8022C31.8372 16.0898 32.3621 15.54 33.037 15.1525C33.7118 14.7651 34.5117 14.5714 35.4365 14.5714C36.3363 14.5714 37.1236 14.7651 37.7985 15.1525C38.4733 15.54 38.9982 16.0898 39.3731 16.8022C39.7481 17.502 39.9355 18.3394 39.9355 19.3142C39.9355 20.289 39.7481 21.1325 39.3731 21.8449C38.9982 22.5447 38.4733 23.0884 37.7985 23.4758C37.1236 23.8632 36.3363 24.0569 35.4365 24.0569ZM35.4365 22.5947C36.2113 22.5947 36.8362 22.3135 37.3111 21.7512C37.786 21.1888 38.0234 20.3764 38.0234 19.3142C38.0234 18.2519 37.786 17.4458 37.3111 16.8959C36.8362 16.3335 36.2113 16.0524 35.4365 16.0524C34.6491 16.0524 34.018 16.3335 33.5431 16.8959C33.0682 17.4458 32.8308 18.2519 32.8308 19.3142C32.8308 20.3764 33.0682 21.1888 33.5431 21.7512C34.018 22.3135 34.6491 22.5947 35.4365 22.5947Z" fill="url(#paint2_linear_10862_41255)"/>
  <path d="M40.6237 23.8882L44.4292 19.1642L40.8674 14.7401H43.0794L45.5352 17.8707L47.9909 14.7401H50.2029L46.6224 19.1829L50.4466 23.8882H48.1971L45.5164 20.5139L42.8545 23.8882H40.6237Z" fill="url(#paint3_linear_10862_41255)"/>
  <path d="M21.7861 5L5.66905 8.1033L6.45038 10.1242L21.7861 5Z" fill="#012296"/>
  <defs>
    <linearGradient id="paint0_linear_10862_41255" x1="42.3802" y1="-8.04885" x2="-6.76168" y2="-0.74185" gradientUnits="userSpaceOnUse">
      <stop stop-color="#002195"/>
      <stop offset="1" stop-color="#1A1717"/>
    </linearGradient>
    <linearGradient id="paint1_linear_10862_41255" x1="42.3802" y1="-8.04885" x2="-6.76168" y2="-0.74185" gradientUnits="userSpaceOnUse">
      <stop stop-color="#002195"/>
      <stop offset="1" stop-color="#1A1717"/>
    </linearGradient>
    <linearGradient id="paint2_linear_10862_41255" x1="42.3802" y1="-8.04885" x2="-6.76168" y2="-0.74185" gradientUnits="userSpaceOnUse">
      <stop stop-color="#002195"/>
      <stop offset="1" stop-color="#1A1717"/>
    </linearGradient>
    <linearGradient id="paint3_linear_10862_41255" x1="42.3802" y1="-8.04885" x2="-6.76168" y2="-0.74185" gradientUnits="userSpaceOnUse">
      <stop stop-color="#002195"/>
      <stop offset="1" stop-color="#1A1717"/>
    </linearGradient>
  </defs>
</svg>
