<svg width="263" height="213" viewBox="0 0 263 213" fill="none" xmlns="http://www.w3.org/2000/svg">
<path opacity="0.13" d="M-26.5434 204.667C29.6446 219.723 89.4511 212.917 140.819 185.621C192.188 158.326 231.298 112.57 250.265 57.5796C269.233 2.58876 266.647 -57.5481 243.029 -110.708C219.411 -163.868 176.518 -206.097 122.996 -228.882C69.4746 -251.668 9.30463 -253.315 -45.3836 -233.492C-100.072 -213.669 -145.211 -173.85 -171.702 -122.062C-198.193 -70.2739 -204.065 -10.3686 -188.135 45.5777C-172.205 101.524 -135.656 149.35 -85.8585 179.416L-35.7653 96.4446C-64.5675 79.0555 -85.7062 51.3936 -94.9199 19.0354C-104.134 -13.3229 -100.737 -47.9709 -85.4156 -77.9241C-70.0938 -107.877 -43.986 -130.908 -12.3554 -142.373C19.2752 -153.838 54.0763 -152.886 85.0323 -139.707C115.988 -126.528 140.797 -102.104 154.457 -71.3572C168.117 -40.6106 169.612 -5.8286 158.642 25.977C147.672 57.7827 125.051 84.2466 95.3408 100.034C65.6303 115.821 31.0394 119.758 -1.45857 111.05L-26.5434 204.667Z" fill="#919CFF"/>
</svg>
