<svg width="117" height="117" viewBox="0 0 117 117" fill="none" xmlns="http://www.w3.org/2000/svg">
  <path d="M27.1416 0.16287C17.1997 7.26038 9.48642 17.0441 4.90519 28.3678C0.323956 39.6915 -0.935444 52.0863 1.27453 64.1C3.48449 76.1138 9.07231 87.249 17.3833 96.2011C25.6944 105.153 36.3845 111.552 48.2012 114.647C60.0179 117.741 72.472 117.405 84.1043 113.676C95.7366 109.947 106.065 102.981 113.881 93.593C121.696 84.205 126.674 72.7843 128.232 60.6687C129.79 48.5531 127.863 36.2445 122.677 25.1847L86.4359 42.179C88.3922 46.3509 89.1191 50.9938 88.5315 55.564C87.9439 60.1341 86.066 64.4422 83.118 67.9835C80.1699 71.5247 76.2738 74.1525 71.8859 75.5591C67.4981 76.9656 62.8002 77.0925 58.3428 75.9251C53.8854 74.7576 49.853 72.3441 46.718 68.9673C43.5829 65.5904 41.4751 61.3901 40.6415 56.8583C39.8079 52.3266 40.2829 47.6511 42.011 43.3797C43.7391 39.1082 46.6487 35.4177 50.3989 32.7404L27.1416 0.16287Z" fill="white"/>
</svg>
