<svg width="176" height="183" viewBox="0 0 176 183" fill="none" xmlns="http://www.w3.org/2000/svg">
  <path d="M150.185 181.726C163.571 165.474 172.048 145.744 174.624 124.847C177.199 103.951 173.767 82.7526 164.728 63.7365C155.689 44.7205 141.418 28.6741 123.587 17.4772C105.756 6.2803 85.1038 0.396574 64.0492 0.515334C42.9946 0.634093 22.4098 6.75042 4.70638 18.1478C-12.9971 29.5451 -27.086 45.7515 -35.9098 64.8682C-44.7336 83.985 -47.9269 105.221 -45.1156 126.087C-42.3044 146.953 -33.6049 166.587 -20.0364 182.686L32.7202 138.225C27.602 132.152 24.3205 124.746 23.26 116.875C22.1996 109.004 23.4041 100.993 26.7326 93.7824C30.0611 86.5713 35.3756 80.4581 42.0535 76.1589C48.7315 71.8596 56.4963 69.5525 64.4384 69.5077C72.3804 69.4629 80.1708 71.6823 86.8968 75.9059C93.6229 80.1295 99.006 86.1824 102.416 93.3555C105.825 100.529 107.12 108.525 106.148 116.407C105.177 124.29 101.979 131.732 96.9297 137.863L150.185 181.726Z" fill="white"/>
</svg>
