<svg width="141" height="178" viewBox="0 0 141 178" fill="none" xmlns="http://www.w3.org/2000/svg">
  <path d="M90.4148 186.814C104.074 178.928 115.672 167.92 124.259 154.69C132.847 141.461 138.18 126.386 139.822 110.699C141.464 95.0127 139.368 79.1602 133.707 64.4391C128.045 49.718 118.978 36.5466 107.248 26.0028C95.5185 15.4589 81.4587 7.84226 66.2196 3.7761C50.9805 -0.290046 34.9952 -0.690159 19.5717 2.60853C4.14826 5.90721 -10.275 12.8109 -22.5177 22.7548C-34.7605 32.6986 -44.4748 45.3999 -50.8657 59.8193L-16.7244 74.9513C-12.7226 65.9221 -6.63964 57.9688 1.02652 51.7422C8.69268 45.5156 17.7242 41.1926 27.3821 39.127C37.0399 37.0615 47.0497 37.312 56.5921 39.8581C66.1345 42.4043 74.9385 47.1737 82.2835 53.776C89.6286 60.3784 95.306 68.626 98.8512 77.8441C102.396 87.0622 103.708 96.9887 102.68 106.811C101.652 116.634 98.3126 126.073 92.9354 134.358C87.5581 142.642 80.2958 149.535 71.7427 154.473L90.4148 186.814Z" fill="#DAFFE4"/>
</svg>
