<svg width="162" height="113" viewBox="0 0 162 113" fill="none" xmlns="http://www.w3.org/2000/svg">
<path d="M84.6134 31.1281L3.94819 32.0203C3.50275 32.0253 3.13903 31.6655 3.13903 31.2201C3.13903 27.4666 5.59083 24.1534 9.18043 23.0563L84.6152 9.91821e-05L18.2782 28.2659L84.6134 29.5213L84.6134 31.1281Z" fill="#0085FF"/>
<path d="M93.6074 81.8719L158.845 80.9824C159.318 80.976 159.705 81.358 159.705 81.8314C159.705 85.6014 157.37 88.9771 153.842 90.3063L93.6074 113L147.423 84.7341L93.6074 83.4787L93.6074 81.8719Z" fill="#1D1D1D"/>
<path d="M152.634 48.873C155.516 48.873 157.79 49.6245 159.455 51.1275C161.152 52.6305 162.001 54.773 162.001 57.5551C162.001 58.3226 161.889 59.3299 161.665 60.5771L158.831 74.7755H152.826L155.612 60.721C155.74 60.0814 155.804 59.4259 155.804 58.7543C155.804 55.6524 154.091 54.1015 150.665 54.1015C148.455 54.1015 146.63 54.7251 145.189 55.9722C143.748 57.1874 142.771 59.0261 142.259 61.4885L139.569 74.7755H133.564L140.674 39.1836H146.678L144.18 51.7031C146.39 49.8164 149.208 48.873 152.634 48.873Z" fill="#1D1D1D"/>
<path d="M119.673 75.1113C117.143 75.1113 114.917 74.6476 112.996 73.7202C111.107 72.7608 109.65 71.4337 108.625 69.7389C107.6 68.044 107.088 66.0774 107.088 63.8389C107.088 60.9928 107.744 58.4346 109.057 56.1641C110.37 53.8936 112.18 52.1188 114.485 50.8397C116.823 49.5286 119.481 48.873 122.459 48.873C125.053 48.873 127.278 49.3847 129.136 50.408C131.025 51.3993 132.482 52.8863 133.507 54.869L128.367 57.5072C127.182 55.1408 125.053 53.9576 121.979 53.9576C120.281 53.9576 118.76 54.3733 117.415 55.2048C116.102 56.0042 115.062 57.1394 114.293 58.6104C113.524 60.0495 113.14 61.6964 113.14 63.5511C113.14 65.5657 113.733 67.1487 114.917 68.2999C116.102 69.4191 117.784 69.9787 119.961 69.9787C121.434 69.9787 122.763 69.6909 123.948 69.1153C125.133 68.5077 126.142 67.6123 126.974 66.4291L131.393 69.4031C130.208 71.1939 128.575 72.601 126.494 73.6243C124.412 74.6156 122.139 75.1113 119.673 75.1113Z" fill="#1D1D1D"/>
<path d="M96.7726 66.1891C96.7086 66.7008 96.6765 67.0685 96.6765 67.2924C96.6765 69.2111 97.6693 70.1704 99.6547 70.1704C100.904 70.1704 102.024 69.8346 103.017 69.1631L104.074 73.5761C102.441 74.5994 100.375 75.111 97.8774 75.111C95.6998 75.111 93.9386 74.5035 92.5936 73.2883C91.2487 72.0731 90.5762 70.4102 90.5762 68.2997C90.5762 67.5642 90.6402 66.8766 90.7683 66.2371L95.3316 43.5005H101.336L100.135 49.3525H107.004L106.043 54.1493H99.1743L96.7726 66.1891Z" fill="#1D1D1D"/>
<path d="M81.4471 49.1609H87.4514L82.3598 74.7755H76.3555L81.4471 49.1609ZM85.8182 44.9397C84.7615 44.9397 83.8969 44.62 83.2244 43.9804C82.5519 43.3089 82.2157 42.5094 82.2157 41.582C82.2157 40.4948 82.5839 39.5834 83.3205 38.8479C84.089 38.1124 85.0817 37.7446 86.2986 37.7446C87.3553 37.7446 88.22 38.0644 88.8924 38.704C89.5649 39.3116 89.9012 40.0631 89.9012 40.9584C89.9012 42.1416 89.5169 43.101 88.7483 43.8365C88.0118 44.572 87.0351 44.9397 85.8182 44.9397Z" fill="#1D1D1D"/>
<path d="M74.9763 49.1611L72.3344 63.4554C71.5979 67.3248 70.1088 70.2348 67.8672 72.1855C65.6256 74.1362 62.8556 75.1115 59.5573 75.1115C57.5718 75.1115 55.8586 74.7598 54.4176 74.0562C52.9765 73.3527 51.8878 72.3934 51.1512 71.1782C49.9664 72.5213 48.5734 73.5126 46.9723 74.1522C45.3711 74.7917 43.7059 75.1115 41.9767 75.1115C38.7744 75.1115 36.2926 74.2801 34.5314 72.6172C32.8021 70.9544 31.9375 68.7319 31.9375 65.9497C31.9375 65.0863 32.0336 64.175 32.2257 63.2156L34.9156 49.1611H40.6317L38.0379 63.0237C37.8777 63.7273 37.7977 64.4947 37.7977 65.3262C37.7977 68.3641 39.4629 69.8831 42.7933 69.8831C46.3158 69.8831 48.5254 67.6926 49.422 63.3115L52.1119 49.1611H57.78L55.1861 63.0237C55.026 63.9191 54.946 64.6706 54.946 65.2782C54.946 66.8451 55.3462 68.0124 56.1468 68.7798C56.9794 69.5153 58.2443 69.8831 59.9415 69.8831C61.7989 69.8831 63.2719 69.3235 64.3607 68.2042C65.4495 67.053 66.218 65.2942 66.6663 62.9278L69.2602 49.1611H74.9763Z" fill="#1D1D1D"/>
<path d="M13.0173 75.2553C10.4235 75.2553 7.94168 74.8876 5.57199 74.1521C3.20229 73.4166 1.34496 72.4732 0 71.322L2.64189 66.4293C4.0509 67.5486 5.71609 68.444 7.63746 69.1155C9.59086 69.7551 11.5763 70.0748 13.5937 70.0748C16.0595 70.0748 18.0129 69.6591 19.4539 68.8277C20.927 67.9643 21.6635 66.7971 21.6635 65.3261C21.6635 64.4946 21.3593 63.8071 20.7508 63.2635C20.1744 62.6879 19.4379 62.2242 18.5413 61.8724C17.6766 61.5206 16.4598 61.1209 14.8907 60.6732C12.7131 60.0337 10.9518 59.4261 9.60687 58.8505C8.26191 58.2429 7.10909 57.3475 6.1484 56.1643C5.18771 54.9811 4.70737 53.4461 4.70737 51.5594C4.70737 49.3849 5.3158 47.4822 6.53267 45.8513C7.78157 44.2204 9.5108 42.9572 11.7204 42.0618C13.93 41.1664 16.4758 40.7188 19.3578 40.7188C21.5354 40.7188 23.6009 40.9746 25.5543 41.4862C27.5077 41.9659 29.1889 42.6534 30.5979 43.5488L28.1481 48.4895C26.8992 47.658 25.4902 47.0185 23.9211 46.5708C22.352 46.1231 20.7188 45.8992 19.0216 45.8992C16.5238 45.8992 14.5384 46.3629 13.0653 47.2903C11.6243 48.1857 10.9038 49.3849 10.9038 50.8879C10.9038 51.7513 11.208 52.4708 11.8165 53.0464C12.4249 53.622 13.1614 54.0857 14.026 54.4374C14.8907 54.7572 16.1556 55.1729 17.8207 55.6846C19.9343 56.2922 21.6635 56.8838 23.0085 57.4594C24.3534 58.035 25.4902 58.8824 26.4189 60.0017C27.3796 61.1209 27.8599 62.5759 27.8599 64.3667C27.8599 66.5732 27.2355 68.4919 25.9866 70.1228C24.7697 71.7537 23.0245 73.0168 20.7508 73.9122C18.5092 74.8076 15.9314 75.2553 13.0173 75.2553Z" fill="#1D1D1D"/>
</svg>
