<svg width="28" height="28" viewBox="0 0 28 28" fill="none" xmlns="http://www.w3.org/2000/svg">
  <path d="M7 23.3332C7 21.4472 7.7375 19.6384 9.05025 18.3049C10.363 16.9713 12.1435 16.2221 14 16.2221C15.8565 16.2221 17.637 16.9713 18.9497 18.3049C20.2625 19.6384 21 21.4472 21 23.3332H19.25C19.25 21.9187 18.6969 20.5621 17.7123 19.5619C16.7277 18.5617 15.3924 17.9998 14 17.9998C12.6076 17.9998 11.2723 18.5617 10.2877 19.5619C9.30312 20.5621 8.75 21.9187 8.75 23.3332H7ZM14 15.3332C11.0994 15.3332 8.75 12.9465 8.75 9.99984C8.75 7.05317 11.0994 4.6665 14 4.6665C16.9006 4.6665 19.25 7.05317 19.25 9.99984C19.25 12.9465 16.9006 15.3332 14 15.3332ZM14 13.5554C15.9338 13.5554 17.5 11.9643 17.5 9.99984C17.5 8.03539 15.9338 6.44428 14 6.44428C12.0662 6.44428 10.5 8.03539 10.5 9.99984C10.5 11.9643 12.0662 13.5554 14 13.5554Z" fill="#2B46A3"/>
</svg>
