<svg width="141" height="54" viewBox="0 0 141 54" fill="none" xmlns="http://www.w3.org/2000/svg">
  <path d="M20.7444 53.9043L0.164307 7.25001H7.5096L23.8545 45.2352L33.9694 28.0837L47.2139 7.25001L37.7218 28.0837L26.6338 53.9043H20.7444Z" fill="black" fill-opacity="0.8"/>
  <path d="M55.9818 53.9043C51.8064 53.9043 48.5182 52.7386 46.1174 50.4073C43.7165 48.0411 42.5161 44.8224 42.5161 40.7513C42.5161 38.1415 43.038 35.845 44.0819 33.8616C45.1605 31.8434 46.6393 30.2776 48.5182 29.1641C50.3972 28.0506 52.5545 27.4939 54.9901 27.4939C58.5044 27.4939 61.2706 28.6247 63.2887 30.8865C65.3069 33.1135 66.3159 36.1929 66.3159 40.1249V41.8996H47.631C48.0137 47.1886 50.8147 49.8331 56.034 49.8331C57.4954 49.8331 58.922 49.6069 60.3138 49.1546C61.7404 48.7022 63.08 47.9541 64.3326 46.9102L65.8984 50.5638C64.7501 51.6077 63.2713 52.4254 61.462 53.017C59.6527 53.6085 57.8259 53.9043 55.9818 53.9043ZM55.1989 31.1997C53.0068 31.1997 51.267 31.8782 49.9796 33.2353C48.6922 34.5923 47.9093 36.4017 47.631 38.6635H61.8795C61.7752 36.2973 61.1488 34.4705 60.0006 33.1831C58.8524 31.8608 57.2518 31.1997 55.1989 31.1997Z" fill="black" fill-opacity="0.8"/>
  <path d="M80.3614 53.9043C77.5778 53.9043 75.4901 53.1214 74.0983 51.5555C72.7413 49.9897 72.0628 47.6931 72.0628 44.6659V16.6374H77.3343V44.3527C77.3343 47.7975 78.7435 49.52 81.5619 49.52C81.9794 49.52 82.3622 49.5026 82.7101 49.4678C83.0928 49.433 83.4756 49.3634 83.8583 49.259L83.754 53.4867C82.5709 53.7651 81.4401 53.9043 80.3614 53.9043Z" fill="black" fill-opacity="0.8"/>
  <path d="M98.8262 53.9043C96.2514 53.9043 94.0245 53.365 92.1455 52.2863C90.2666 51.2076 88.8052 49.6939 87.7614 47.7453C86.7523 45.7619 86.2478 43.4132 86.2478 40.6991C86.2478 37.985 86.7523 35.6536 87.7614 33.705C88.8052 31.7216 90.2666 30.1906 92.1455 29.1119C94.0245 28.0332 96.2514 27.4939 98.8262 27.4939C101.331 27.4939 103.524 28.0332 105.402 29.1119C107.281 30.1906 108.743 31.7216 109.787 33.705C110.831 35.6536 111.352 37.985 111.352 40.6991C111.352 43.4132 110.831 45.7619 109.787 47.7453C108.743 49.6939 107.281 51.2076 105.402 52.2863C103.524 53.365 101.331 53.9043 98.8262 53.9043ZM98.8262 49.8331C100.983 49.8331 102.723 49.0502 104.045 47.4844C105.368 45.9185 106.029 43.6568 106.029 40.6991C106.029 37.7414 105.368 35.497 104.045 33.966C102.723 32.4001 100.983 31.6172 98.8262 31.6172C96.6341 31.6172 94.877 32.4001 93.5547 33.966C92.2325 35.497 91.5714 37.7414 91.5714 40.6991C91.5714 43.6568 92.2325 45.9185 93.5547 47.4844C94.877 49.0502 96.6341 49.8331 98.8262 49.8331Z" fill="black" fill-opacity="0.8"/>
  <path d="M113.268 53.4345L123.864 40.2815L113.947 27.9636H120.106L126.943 36.6801L133.78 27.9636H139.939L129.97 40.3337L140.617 53.4345H134.354L126.891 44.0395L119.479 53.4345H113.268Z" fill="black" fill-opacity="0.8"/>
  <path d="M60.8209 0.844238L15.948 9.48473L18.1234 15.1115L60.8209 0.844238Z" fill="black" fill-opacity="0.8"/>
</svg>
